<?xml version="1.0" encoding="utf-8"?>
<!-- Generator: Adobe Illustrator 27.5.0, SVG Export Plug-In . SVG Version: 6.00 Build 0)  -->
<svg version="1.1" xmlns="http://www.w3.org/2000/svg" xmlns:xlink="http://www.w3.org/1999/xlink" x="0px" y="0px"
	 viewBox="0 0 3710 3710" style="enable-background:new 0 0 3710 3710;" xml:space="preserve">
<g id="Background">
	<g>
		<g>
			<rect style="fill:#FFFFFF;" width="3710" height="3710"/>
		</g>
	</g>
</g>
<g id="Illustration">
	<g>
		<path style="fill:#F4F7FA;" d="M3224.461,1638.977c-75.554-494.534-385.323-1102.103-997.307-1165.687
			c0,0-464.646-56.516-922.686,29.141c-271.846,50.837-510.216,202.17-661.046,419.672
			c-150.832,217.504-201.214,482.719-140.069,735.567c39.714,164.226,66.549,334.193,59.185,502.944
			c-9.287,212.824-26.778,436.595,67.305,635.061c137.852,290.782,474.199,376.436,767.684,403.755
			c108.151,10.067,216.703,14.125,324.949,22.683c207.657,16.417,440.532-10.151,640.675-64.214
			C3383.121,2882.375,3300.015,2133.51,3224.461,1638.977z"/>
		<g>
			<path style="fill:#BFC6D1;" d="M1925.928,868.323c17.471,1.471,32.927-12.672,34.521-31.59
				c1.593-18.918-11.279-35.447-28.75-36.918c-0.906-0.076-1.802-0.085-2.694-0.08c-0.833-9.771-2.357-19.341-4.549-28.644
				c0.829-0.339,1.657-0.692,2.473-1.111c15.927-8.185,22.876-28.697,15.52-45.817c-7.356-17.12-26.231-24.363-42.158-16.178
				c-0.833,0.429-1.626,0.909-2.409,1.402c-5.2-7.852-10.958-15.248-17.226-22.123c0.579-0.753,1.149-1.52,1.678-2.337
				c10.116-15.648,6.696-37.034-7.638-47.768c-14.334-10.733-34.155-6.749-44.27,8.899c-0.519,0.802-0.977,1.627-1.425,2.457
				c-8.092-3.905-16.54-7.139-25.287-9.669c0.155-0.953,0.298-1.912,0.38-2.892c1.594-18.918,5.041-40.277-12.452-41.475
				c-40.465-2.771-49.225,17.227-50.818,36.145c-0.082,0.98-0.103,1.949-0.109,2.915c-9.047,1.032-17.917,2.807-26.548,5.303
				c-0.302-0.893-0.618-1.783-0.994-2.661c-7.355-17.119-6.028-28.54-22.747-22.124c-36.458,13.987-42.287,34.645-34.931,51.764
				c0.385,0.895,0.818,1.746,1.263,2.586c-7.33,5.729-14.244,12.057-20.685,18.929c-0.689-0.617-1.39-1.223-2.14-1.785
				c-14.333-10.733-34.154-6.75-44.27,8.899c-10.116,15.648-6.696,37.034,7.639,47.768c0.734,0.55,1.49,1.035,2.252,1.509
				c-3.719,8.804-6.82,17.985-9.277,27.479c-0.879-0.154-1.764-0.296-2.669-0.372c-17.472-1.472-32.927,12.672-34.521,31.59
				c-1.594,18.917,11.278,35.447,28.75,36.919c0.905,0.076,1.802,0.085,2.694,0.079c0.834,9.772,2.357,19.342,4.549,28.645
				c-0.829,0.339-1.657,0.691-2.472,1.11c-15.928,8.186-22.876,28.698-15.521,45.818c7.356,17.12,26.231,24.362,42.159,16.178
				c0.832-0.427,1.625-0.908,2.408-1.401c5.2,7.853,10.959,15.247,17.226,22.123c-0.579,0.753-1.149,1.52-1.677,2.338
				c-10.115,15.648-6.696,37.034,7.638,47.767c14.335,10.734,45.364,5.823,55.48-9.825c0.518-0.802-10.231-0.7-9.784-1.53
				c8.091,3.905,16.54,7.139,25.287,9.669c-0.155,0.953-0.297,1.913-0.38,2.892c-1.594,18.918,11.279,35.447,28.75,36.919
				c17.472,1.472,32.927-12.672,34.52-31.59c0.083-0.979,0.103-1.949,0.109-2.915c9.048-1.031,17.917-2.806,26.548-5.302
				c0.302,0.893,0.617,1.782,0.994,2.66c7.355,17.119,26.23,24.362,42.158,16.177c15.927-8.185,22.875-28.698,15.52-45.816
				c-0.385-0.895-0.818-1.746-1.264-2.585c7.331-5.73,14.245-12.057,20.685-18.93c0.689,0.617,1.39,1.224,2.14,1.784
				c14.334,10.733,34.154,6.75,44.27-8.898c10.116-15.648,6.696-37.034-7.638-47.768c-0.734-0.549-1.491-1.035-2.252-1.508
				c3.718-8.805,6.82-17.985,9.277-27.48C1924.137,868.105,1925.023,868.246,1925.928,868.323z M1746.292,943.947
				c-63.436-5.343-110.17-65.356-104.385-134.044c5.785-68.688,61.9-120.038,125.335-114.695
				c63.436,5.342,110.17,65.356,104.385,134.044C1865.841,897.939,1809.727,949.29,1746.292,943.947z"/>
			<path style="fill:#BFC6D1;" d="M1926.927,769.979c15.927-8.185,22.875-28.698,15.52-45.817
				c-7.356-17.12-26.231-24.363-42.158-16.178c-0.833,0.427-1.625,0.909-2.407,1.401c-5.201-7.853-10.959-15.247-17.227-22.123
				c0.579-0.753,1.149-1.52,1.677-2.338c10.116-15.647,17.887-46.686,2.528-55.891c-29.151-17.473-44.32,1.375-54.436,17.023
				c-0.519,0.802-0.977,1.626-1.425,2.456c-8.092-3.905-16.539-7.138-25.287-9.668c0.155-0.953,0.298-1.912,0.38-2.892
				c0.868-10.297-2.573-19.863-8.685-26.701c-3.894,29.582-7.564,59.19-10.939,88.832c54.442,13.704,92.405,68.866,87.158,131.17
				c-4.446,52.796-38.64,95.315-83.025,109.754c0.103,5.771,0.251,11.555,0.197,17.335c-0.146,15.682-1.162,31.396-2.195,47.097
				c4.307-0.87,8.565-1.908,12.765-3.123c0.302,0.894,0.617,1.783,0.994,2.661c7.355,17.12,23.791,27.528,53.096,13.776
				c16.212-7.607,11.938-26.296,4.583-43.415c-0.384-0.894-0.818-1.746-1.263-2.586c7.33-5.73,14.244-12.057,20.685-18.929
				c0.689,0.617,1.391,1.224,2.14,1.784c14.334,10.735,46.491,4.708,56.606-10.94c10.116-15.648-5.641-34.991-19.974-45.726
				c-0.734-0.549-1.491-1.035-2.253-1.509c3.719-8.804,6.821-17.986,9.277-27.48c0.879,0.156,1.764,0.297,2.669,0.372
				c17.472,1.473,32.927-12.671,34.521-31.59c1.593-18.917-11.278-35.447-28.75-36.918c-0.906-0.076-1.801-0.085-2.694-0.08
				c-0.833-9.771-2.357-19.341-4.549-28.643C1925.284,770.75,1926.111,770.398,1926.927,769.979z"/>
			<path style="fill:#D8DEE8;" d="M1942.226,863.767c17.472,1.471,32.927-12.672,34.521-31.59
				c1.593-18.918-11.279-35.447-28.75-36.918c-0.906-0.076-1.801-0.086-2.694-0.08c-0.834-9.772-2.357-19.342-4.549-28.644
				c0.83-0.339,1.657-0.692,2.472-1.112c15.928-8.184,22.876-28.697,15.52-45.817c-7.355-17.12-26.231-24.363-42.158-16.178
				c-0.833,0.429-1.626,0.909-2.409,1.402c-5.2-7.853-10.958-15.248-17.226-22.123c0.579-0.753,1.149-1.52,1.678-2.338
				c10.115-15.646,6.695-37.034-7.638-47.767c-14.334-10.733-34.155-6.75-44.27,8.898c-0.518,0.803-0.977,1.627-1.425,2.457
				c-8.092-3.905-16.539-7.138-25.287-9.668c0.155-0.953,0.298-1.912,0.38-2.892c1.594-18.918-11.279-35.447-28.75-36.919
				c-17.471-1.471-32.926,12.672-34.52,31.59c-0.083,0.979-0.103,1.949-0.109,2.915c-9.047,1.031-17.917,2.806-26.547,5.303
				c-0.302-0.893-0.618-1.783-0.994-2.661c-7.356-17.119-26.231-24.362-42.159-16.178c-15.928,8.185-22.876,28.698-15.521,45.818
				c0.385,0.894,0.818,1.746,1.264,2.586c-7.33,5.729-14.244,12.057-20.685,18.929c-0.689-0.617-1.39-1.223-2.139-1.785
				c-14.335-10.734-34.155-6.75-44.271,8.899c-10.116,15.648-6.696,37.034,7.639,47.767c0.734,0.55,1.491,1.036,2.252,1.509
				c-3.718,8.805-6.82,17.985-9.277,27.48c-0.879-0.155-1.763-0.296-2.669-0.372c-17.472-1.471-32.927,12.672-34.52,31.59
				c-1.594,18.918,11.278,35.448,28.749,36.919c0.905,0.076,1.802,0.085,2.694,0.08c0.834,9.772,2.357,19.342,4.55,28.644
				c-0.829,0.34-1.657,0.692-2.473,1.111c-15.928,8.185-22.876,28.698-15.52,45.818c7.355,17.12,26.231,24.362,42.158,16.177
				c0.833-0.427,1.626-0.907,2.408-1.401c5.2,7.853,10.958,15.247,17.227,22.122c-0.58,0.753-1.15,1.521-1.678,2.338
				c-10.116,15.647-6.696,37.034,7.639,47.767c14.333,10.733,34.154,6.75,44.27-8.898c0.518-0.802,0.977-1.627,1.425-2.457
				c8.092,3.905,16.54,7.138,25.287,9.669c-0.155,0.953-0.297,1.912-0.38,2.892c-1.593,18.918,11.279,35.447,28.75,36.919
				c17.471,1.471,32.927-12.672,34.52-31.59c0.083-0.979,0.103-1.949,0.109-2.915c9.048-1.031,17.917-2.806,26.548-5.303
				c0.303,0.894,0.617,1.783,0.994,2.66c7.355,17.119,26.23,24.362,42.158,16.178c15.927-8.185,22.876-28.698,15.52-45.816
				c-0.385-0.895-0.818-1.746-1.264-2.586c7.33-5.73,14.244-12.057,20.685-18.929c0.689,0.617,1.391,1.223,2.14,1.784
				c14.334,10.734,34.155,6.75,44.27-8.898c10.116-15.649,6.696-37.034-7.638-47.768c-0.734-0.549-1.491-1.035-2.252-1.508
				c3.718-8.805,6.821-17.985,9.277-27.48C1940.436,863.55,1941.322,863.69,1942.226,863.767z M1762.59,939.391
				c-63.436-5.342-110.17-65.355-104.385-134.043c5.785-68.688,61.899-120.039,125.334-114.695
				c63.435,5.343,110.17,65.355,104.385,134.043C1882.14,893.384,1826.026,944.735,1762.59,939.391z"/>
		</g>
		<g>
			<g>
				<defs>
					<path id="SVGID_1_" d="M1922.726,2364.959l-215.344,147.094c0,0-115.993-82.777-116.472-196.784
						c-0.977-232.608-204.635-215.518-291.005-221.121c-130.255-8.449-241.354-72.701-144.968-199.55
						c96.386-126.848-161.145-234.598-373.471-217.926c-207.776,16.315-356.671-343.617,89.792-420.22
						c266.627-45.747,381.909,191.327,468.587,297.207c86.679,105.88,260.457,0.838,297.089,177.488
						c31.291,150.891-3.195,300.057,122.931,332.337C1885.992,2095.765,1955.18,2181.293,1922.726,2364.959z"/>
				</defs>
				<clipPath id="SVGID_00000076571450107886393790000012923212331867092883_">
					<use xlink:href="#SVGID_1_"  style="overflow:visible;"/>
				</clipPath>
				
					<linearGradient id="SVGID_00000010280865027189344120000016816866017856505015_" gradientUnits="userSpaceOnUse" x1="8495.9678" y1="-1245.3276" x2="7976.7661" y2="230.3006" gradientTransform="matrix(-0.8257 0.564 0.564 0.8257 8403.0049 -2391.5386)">
					<stop  offset="0.0036" style="stop-color:#E38DDD"/>
					<stop  offset="1" style="stop-color:#9571F6"/>
				</linearGradient>
				
					<path style="clip-path:url(#SVGID_00000076571450107886393790000012923212331867092883_);fill:url(#SVGID_00000010280865027189344120000016816866017856505015_);" d="
					M1922.726,2364.959l-215.344,147.094c0,0-115.993-82.777-116.472-196.784c-0.977-232.608-204.635-215.518-291.005-221.121
					c-130.255-8.449-226.284-68.728-162.242-194.126c72.46-141.881-143.871-240.022-356.197-223.349
					c-207.776,16.315-356.671-343.617,89.792-420.22c266.627-45.747,381.909,191.327,468.587,297.207
					c86.679,105.88,260.457,0.838,297.089,177.488c31.291,150.891-3.195,300.057,122.931,332.337
					C1885.992,2095.765,1955.18,2181.293,1922.726,2364.959z"/>
				<g style="opacity:0.5;clip-path:url(#SVGID_00000076571450107886393790000012923212331867092883_);">
					<path style="fill:#BEB8F2;" d="M1843.176,2448.608l-5.031,2.235c-1.384-3.116-141.087-314.624-372.695-581.673
						c-213.371-246.026-550.68-503.56-945.898-333.318l-2.178-5.056c175.932-75.785,355.204-74.569,532.837,3.612
						c141.898,62.453,283.029,173.897,419.473,331.238C1701.802,2133.319,1841.788,2445.486,1843.176,2448.608z"/>
					<path style="fill:#BEB8F2;" d="M1123.027,1570.284l-4.897,2.519c-83.869-162.919-286.762-337.133-288.801-338.874l3.572-4.189
						C834.949,1231.489,1038.666,1406.41,1123.027,1570.284z"/>
					<path style="fill:#BEB8F2;" d="M1003.243,1521.436c-218.165,9.186-329.896,152.603-330.998,154.049l-4.379-3.335
						c1.117-1.471,114.306-146.915,335.145-156.216L1003.243,1521.436z"/>
					<path style="fill:#BEB8F2;" d="M1607.355,2052.007c-197.236-179.616-524.656-33.06-527.727-31.365l-2.967-4.631
						c2.856-1.948,335.414-149.286,534.401,31.926L1607.355,2052.007z"/>
					<path style="fill:#BEB8F2;" d="M1546.721,1960.227l-5.086,2.114c-65.38-157.171,19.219-353.833,20.082-355.802l5.042,2.208
						C1565.906,1610.696,1482.249,1805.251,1546.721,1960.227z"/>
					<path style="fill:#BEB8F2;" d="M1815.083,2402.309c-63.54-78.946-227.768-63.646-229.419-63.483l-0.543-5.477
						c6.861-0.683,168.837-15.768,234.25,65.509L1815.083,2402.309z"/>
					<path style="fill:#BEB8F2;" d="M1782.991,2328.096l-5.005,2.295c-33.414-72.827,15.542-212.824,31.63-258.827
						c2.273-6.502,4.235-12.114,4.388-13.182l5.46,0.702c-0.194,1.511-1.488,5.245-4.652,14.298
						C1798.907,2118.867,1750.502,2257.286,1782.991,2328.096z"/>
				</g>
			</g>
			<g>
				
					<linearGradient id="SVGID_00000142163581894299446210000014631323271211633294_" gradientUnits="userSpaceOnUse" x1="-4196.1226" y1="1433.5532" x2="-3542.4412" y2="3151.1575" gradientTransform="matrix(0.9755 0.2199 -0.2199 0.9755 5857.0532 129.15)">
					<stop  offset="0.0036" style="stop-color:#E38DDD"/>
					<stop  offset="1" style="stop-color:#9571F6"/>
				</linearGradient>
				<path style="fill:url(#SVGID_00000142163581894299446210000014631323271211633294_);" d="M1412.196,1932.906
					c-48.454,51.24-38.496,118.901-23.619,166.734c6.513,1.869,9.784,4.605,15.916,7.937
					c55.346,30.072,85.365,31.108,144.596,52.135c12.75,4.526,54.211,6.43,71.202,6.12l31.667-1.083
					c0,0,96.237-130.706,28.342-193.34c-67.896-62.634,7.758-198.367,38.974-275.213c19.169-47.189,12.819-74.911,17.079-93.381
					c45.095-195.517,119.746-235.441,95.354-308.028c-26.927-80.13-125.609-54.413-159.506-140.035
					c-38.276-96.684,61.855-194.388,5.188-277.788c-9.715-14.299-20.086-28.726-39.493-41.18
					c-47.903-30.74-99.445-12.698-124.187-66.787c-49.732-108.719-164.682-174.989-266.879-106.172
					c-100.863,67.918-66.526,269.144,110.991,472.973c109.716,159.349,101.003,195.384,62.677,278.334
					c-26.843,58.102-138.112,197.848-68.881,285.569C1420.85,1787.423,1467.59,1874.331,1412.196,1932.906z"/>
				<g>
					<defs>
						<path id="SVGID_00000013872977113299180720000006772720719266605457_" d="M1412.015,2159.31l233.451,9.351
							c0,0,102.73-134.616,34.834-197.25s7.757-198.367,38.974-275.213c84.699-208.504-171.403-259.306-85.792-535.649
							c22.77-73.499,92.814-206.215,43.908-283.582c-55.717-88.143-131.861-38.408-163.68-107.967
							c-49.732-108.719-164.683-174.988-266.879-106.172c-100.864,67.919-66.526,269.144,110.989,472.973
							c109.718,159.35,101.003,195.384,62.679,278.334c-26.844,58.102-138.113,197.849-68.881,285.57
							c69.232,87.721,115.969,174.628,60.577,233.204C1327.91,2022.038,1412.015,2159.31,1412.015,2159.31z"/>
					</defs>
					<clipPath id="SVGID_00000182510685184406022250000016510521797348233603_">
						<use xlink:href="#SVGID_00000013872977113299180720000006772720719266605457_"  style="overflow:visible;"/>
					</clipPath>
					<g style="opacity:0.5;clip-path:url(#SVGID_00000182510685184406022250000016510521797348233603_);">
						<path style="fill:#FCFDFE;" d="M1516.895,2153.116l4.573,0.731c4.272-25.213,8.245-50.694,11.806-75.736
							c26.358-185.414,33.063-366.673,19.922-538.746c-11.136-145.802-36.64-287.063-75.805-419.859
							c-31.496-106.794-71.959-208.719-120.264-302.943c-33.96-66.237-71.412-128.015-111.324-183.613
							c-6.953-9.69-14.643-19.247-22.08-28.491c-9.909-12.315-20.155-25.049-28.735-38.196l-3.95,2.183
							c8.698,13.328,19.013,26.148,28.988,38.547c7.4,9.197,15.051,18.707,21.935,28.299
							c39.786,55.423,77.128,117.016,110.99,183.067c48.186,93.99,88.551,195.673,119.975,302.221
							c39.084,132.523,64.537,273.503,75.651,419.024c13.119,171.782,6.425,352.752-19.895,537.88
							C1525.129,2102.49,1521.162,2127.935,1516.895,2153.116z"/>
						<path style="fill:#FCFDFE;" d="M1513.401,1283.843l4.572-0.612c-31.499-182.431,131.446-457.374,133.097-460.129l-4.057-2.131
							C1645.356,823.74,1481.65,1099.952,1513.401,1283.843z"/>
						<path style="fill:#FCFDFE;" d="M1553.398,1800.634l4.625-0.114c-5.805-126.075-210.422-279.593-212.488-281.13l-2.862,3.336
							C1344.723,1524.25,1547.685,1676.53,1553.398,1800.634z"/>
						<path style="fill:#FCFDFE;" d="M1550.028,1872.335l4.588,0.643c11.954-81.393,75.247-185.783,178.221-293.935
							c5.178-5.438,5.178-5.438,5.308-6.243l-4.581-0.697l2.29,0.348l-1.988-1.112c-0.299,0.399-2.254,2.453-4.521,4.832
							C1625.785,1684.942,1562.101,1790.12,1550.028,1872.335z"/>
						<path style="fill:#FCFDFE;" d="M1523.989,2106.991l4.573-0.596c-15.106-89.799-140.707-158.835-141.972-159.521l-2.291,3.698
							C1385.546,1951.249,1509.227,2019.248,1523.989,2106.991z"/>
						<path style="fill:#FCFDFE;" d="M1523.523,2155.325c37.981-63.513,97.039-118.699,180.549-168.712l-2.556-3.62
							c-84.15,50.398-143.699,106.073-182.05,170.205L1523.523,2155.325z"/>
						<path style="fill:#FCFDFE;" d="M1380.427,874.268l4.522-0.85c-23.593-100.612-23.318-211.019-23.227-247.299
							c0.022-8.783,0.019-11.874-0.184-12.953l-4.56,0.674c0.143,0.826,0.13,5.846,0.114,12.203
							C1357.001,662.439,1356.726,773.196,1380.427,874.268z"/>
						<path style="fill:#FCFDFE;" d="M1444.789,1032.974l4.032-2.052c-51-84.559-251.107-138.504-259.601-140.76l-1.208,4.128
							C1190.072,894.838,1394.741,949.994,1444.789,1032.974z"/>
					</g>
				</g>
			</g>
			<g>
				
					<linearGradient id="SVGID_00000081629581998590584670000003576157275362985624_" gradientUnits="userSpaceOnUse" x1="1201.9125" y1="992.3443" x2="2081.9194" y2="2441.0627" gradientTransform="matrix(0.9932 0.1164 -0.1164 0.9932 -62.0645 -181.409)">
					<stop  offset="0" style="stop-color:#FF9085"/>
					<stop  offset="1" style="stop-color:#FB6FBB"/>
				</linearGradient>
				<path style="fill:url(#SVGID_00000081629581998590584670000003576157275362985624_);" d="M1412.132,2608.456
					c16.016-0.134,7.056-83.769,65.296-182.585c14.55-24.688,84.571-164.843,201.97-155.157c22.789,1.88,45.579,3.758,68.368,5.638
					c25.56-48.668,40.633-99.273-25.915-126.948c-103.347-42.977-82.324-221.464-44.532-281.024
					c46.773-73.717,151.95-247.474-6.714-316.287c-132.086-57.289-229.731-68.784-217.206-237.003
					c12.525-168.222-70.305-283.874-232.211-292.897c-170.382-9.495-280.815-238.116-428.681-183.466
					c-257.647,95.231-87.912,489.241,191.337,630.549c279.247,141.308,97.722,221.196,71.677,356.995
					c-1.703,12.743-3.361,32.631-0.863,56.476c15.387,146.804,161.732,189.1,254.631,318.804
					C1435.985,2378.441,1385.149,2608.681,1412.132,2608.456z"/>
				<g>
					<defs>
						<path id="SVGID_00000172401907764748431360000017421566177042134437_" d="M1361.32,2274.228l368.589,40.743
							c27.584-46.86,66.277-134.653-8.058-165.566c-103.348-42.979-82.324-221.465-44.533-281.025
							c46.773-73.717,151.949-247.474-6.714-316.288c-132.086-57.288-229.73-68.782-217.205-237.003
							c12.525-168.221-70.306-283.874-232.212-292.896c-170.381-9.495-280.814-238.117-428.68-183.465
							c-257.647,95.229-87.912,489.238,191.336,630.548c279.248,141.308,97.723,221.195,71.678,356.995
							c-35.558,185.397,237.185,177.088,298.106,258.764C1401.387,2149.065,1380.592,2227.183,1361.32,2274.228z"/>
					</defs>
					<clipPath id="SVGID_00000121977574585441554660000017581191774223942535_">
						<use xlink:href="#SVGID_00000172401907764748431360000017421566177042134437_"  style="overflow:visible;"/>
					</clipPath>
					<g style="opacity:0.5;clip-path:url(#SVGID_00000121977574585441554660000017581191774223942535_);">
						<path style="fill:#FCFDFE;" d="M1541.664,2238.705l8.018-0.588c-45.673-553.079-375.597-1082.534-861.022-1381.747
							l-4.397,6.353C1167.643,1160.675,1496.181,1687.922,1541.664,2238.705z"/>
						<path style="fill:#FCFDFE;" d="M1489.388,1939.176l7.983,0.918c27.893-216.423,245.991-362.591,248.191-364.042l-4.608-6.219
							C1738.725,1571.3,1517.722,1719.342,1489.388,1939.176z"/>
						<path style="fill:#FCFDFE;" d="M1530.322,2137.177l7.487-2.77c-85.525-205.774-504.51-281.588-508.733-282.328l-1.472,7.46
							C1031.781,1860.273,1446.424,1935.316,1530.322,2137.177z"/>
						<path style="fill:#FCFDFE;" d="M1266.289,1437.834l7.713-2.155c-52.831-168.109,89.293-401.152,90.734-403.486l-6.945-3.824
							C1356.331,1030.732,1212.481,1266.62,1266.289,1437.834z"/>
						<path style="fill:#FCFDFE;" d="M1044.406,1154.467l5.01-5.938c-165.689-124.402-450.441-98.856-453.302-98.579l0.808,7.55
							C599.747,1057.224,881.3,1032.001,1044.406,1154.467z"/>
					</g>
				</g>
			</g>
		</g>
		<g>
			<path style="fill:#BFC6D1;" d="M2691.036,1320.716c36.305,3.057,68.42-26.332,71.733-65.644
				c3.31-39.311-23.437-73.659-59.742-76.716c-1.882-0.159-3.744-0.177-5.598-0.166c-1.732-20.304-4.897-40.191-9.453-59.522
				c1.723-0.705,3.442-1.437,5.138-2.308c33.097-17.008,47.535-59.631,32.25-95.207c-15.284-35.574-54.506-50.625-87.602-33.617
				c-1.731,0.891-3.379,1.889-5.006,2.913c-10.805-16.317-22.771-31.684-35.796-45.971c1.203-1.565,2.387-3.159,3.486-4.857
				c21.021-32.515,13.914-76.955-15.871-99.261c-29.786-22.303-70.972-14.024-91.992,18.491c-1.077,1.666-2.031,3.38-2.961,5.105
				c-16.814-8.115-34.369-14.835-52.546-20.092c0.322-1.98,0.618-3.973,0.79-6.009c3.312-39.311,10.475-83.695-25.875-86.183
				c-84.084-5.758-102.289,35.798-105.599,75.109c-0.171,2.037-0.214,4.05-0.226,6.057c-18.801,2.144-37.231,5.833-55.166,11.02
				c-0.629-1.856-1.283-3.705-2.066-5.529c-15.284-35.573-12.526-59.304-47.268-45.974c-75.76,29.066-87.871,71.992-72.586,107.564
				c0.799,1.859,1.7,3.627,2.625,5.373c-15.231,11.906-29.599,25.055-42.983,39.335c-1.431-1.283-2.889-2.542-4.447-3.708
				c-29.784-22.304-70.971-14.026-91.991,18.491c-21.021,32.517-13.914,76.955,15.873,99.26c1.525,1.143,3.097,2.151,4.679,3.136
				c-7.727,18.295-14.172,37.373-19.278,57.102c-1.826-0.321-3.666-0.615-5.545-0.773c-36.306-3.059-68.421,26.332-71.733,65.644
				c-3.311,39.309,23.436,73.657,59.742,76.716c1.881,0.157,3.744,0.177,5.598,0.165c1.732,20.306,4.897,40.192,9.454,59.524
				c-1.722,0.705-3.443,1.436-5.137,2.306c-33.097,17.01-47.536,59.634-32.251,95.208c15.285,35.574,54.507,50.624,87.605,33.617
				c1.73-0.888,3.378-1.887,5.004-2.912c10.806,16.318,22.772,31.684,35.796,45.971c-1.203,1.565-2.387,3.159-3.486,4.858
				c-21.02,32.515-13.914,76.955,15.871,99.259c29.787,22.304,94.265,12.099,115.285-20.416c1.076-1.666-21.26-1.455-20.331-3.179
				c16.814,8.115,34.369,14.835,52.545,20.091c-0.322,1.98-0.618,3.975-0.789,6.01c-3.312,39.311,23.437,73.658,59.742,76.716
				c36.306,3.059,68.421-26.332,71.731-65.643c0.172-2.035,0.213-4.05,0.226-6.057c18.801-2.143,37.232-5.831,55.166-11.018
				c0.629,1.855,1.282,3.704,2.066,5.528c15.284,35.573,54.506,50.624,87.604,33.615c33.097-17.008,47.535-59.633,32.25-95.205
				c-0.8-1.859-1.701-3.629-2.626-5.373c15.233-11.906,29.6-25.055,42.982-39.336c1.431,1.283,2.889,2.543,4.447,3.708
				c29.786,22.304,70.971,14.026,91.992-18.49c21.02-32.517,13.913-76.955-15.872-99.261c-1.526-1.141-3.098-2.151-4.68-3.134
				c7.726-18.296,14.173-37.373,19.277-57.103C2687.316,1320.265,2689.156,1320.557,2691.036,1320.716z M2317.758,1477.862
				c-131.818-11.103-228.931-135.808-216.91-278.539c12.022-142.731,128.626-249.435,260.442-238.334
				c131.818,11.101,228.931,135.808,216.91,278.539C2566.177,1382.259,2449.574,1488.964,2317.758,1477.862z"/>
			<path style="fill:#BFC6D1;" d="M2693.114,1116.36c33.097-17.008,47.534-59.633,32.25-95.207
				c-15.284-35.574-54.506-50.625-87.604-33.617c-1.73,0.888-3.377,1.888-5.002,2.912c-10.807-16.318-22.773-31.684-35.798-45.97
				c1.204-1.564,2.387-3.159,3.486-4.859c21.021-32.513,37.169-97.011,5.254-116.141c-60.575-36.307-92.097,2.858-113.117,35.373
				c-1.077,1.666-2.031,3.379-2.962,5.104c-16.814-8.115-34.368-14.833-52.545-20.091c0.322-1.98,0.618-3.973,0.79-6.009
				c1.803-21.396-5.346-41.274-18.046-55.484c-8.092,61.471-15.718,122.995-22.731,184.59
				c113.129,28.477,192.016,143.101,181.111,272.568c-9.24,109.709-80.293,198.062-172.523,228.065
				c0.213,11.992,0.521,24.011,0.41,36.021c-0.302,32.586-2.415,65.24-4.561,97.866c8.949-1.808,17.797-3.966,26.526-6.489
				c0.628,1.857,1.281,3.706,2.065,5.528c15.285,35.574,49.437,57.203,110.332,28.626c33.687-15.808,24.807-54.641,9.522-90.216
				c-0.799-1.857-1.7-3.627-2.625-5.372c15.232-11.906,29.6-25.055,42.983-39.335c1.431,1.283,2.891,2.543,4.446,3.707
				c29.787,22.306,96.606,9.784,117.627-22.734c21.021-32.517-11.721-72.711-41.506-95.016c-1.526-1.142-3.098-2.151-4.681-3.135
				c7.727-18.295,14.174-37.374,19.278-57.102c1.827,0.324,3.665,0.617,5.546,0.772c36.307,3.061,68.421-26.33,71.732-65.643
				c3.311-39.31-23.436-73.657-59.741-76.714c-1.882-0.159-3.742-0.177-5.598-0.166c-1.732-20.304-4.897-40.191-9.453-59.52
				C2689.698,1117.964,2691.418,1117.231,2693.114,1116.36z"/>
			<path style="fill:#D8DEE8;" d="M2724.904,1311.25c36.305,3.057,68.421-26.332,71.733-65.644
				c3.31-39.311-23.437-73.659-59.742-76.716c-1.882-0.159-3.742-0.177-5.598-0.166c-1.733-20.305-4.897-40.192-9.453-59.522
				c1.724-0.705,3.442-1.437,5.137-2.31c33.097-17.006,47.535-59.631,32.25-95.205c-15.284-35.574-54.507-50.625-87.603-33.617
				c-1.731,0.891-3.379,1.889-5.006,2.913c-10.805-16.318-22.771-31.684-35.795-45.971c1.203-1.565,2.387-3.159,3.486-4.859
				c21.02-32.513,13.913-76.955-15.871-99.259c-29.786-22.303-70.973-14.025-91.992,18.489c-1.077,1.668-2.031,3.381-2.962,5.105
				c-16.814-8.115-34.368-14.833-52.545-20.091c0.322-1.98,0.618-3.973,0.789-6.01c3.312-39.312-23.437-73.659-59.742-76.716
				c-36.304-3.058-68.419,26.331-71.731,65.643c-0.171,2.035-0.214,4.05-0.226,6.057c-18.799,2.142-37.231,5.831-55.165,11.02
				c-0.629-1.855-1.284-3.705-2.065-5.529c-15.285-35.572-54.507-50.623-87.604-33.617c-33.098,17.009-47.536,59.634-32.251,95.208
				c0.8,1.857,1.7,3.627,2.626,5.373c-15.231,11.906-29.599,25.055-42.982,39.335c-1.431-1.282-2.889-2.542-4.445-3.709
				c-29.787-22.305-70.973-14.025-91.994,18.491c-21.021,32.517-13.914,76.955,15.873,99.258c1.525,1.144,3.097,2.153,4.679,3.136
				c-7.726,18.296-14.172,37.373-19.277,57.104c-1.827-0.322-3.664-0.615-5.546-0.774c-36.305-3.057-68.421,26.332-71.731,65.643
				c-3.312,39.311,23.435,73.659,59.74,76.717c1.881,0.159,3.744,0.177,5.598,0.166c1.732,20.306,4.897,40.192,9.455,59.521
				c-1.724,0.707-3.444,1.438-5.139,2.308c-33.098,17.009-47.536,59.634-32.251,95.208c15.285,35.574,54.507,50.624,87.603,33.615
				c1.73-0.888,3.379-1.885,5.005-2.911c10.806,16.318,22.771,31.684,35.798,45.97c-1.204,1.566-2.389,3.16-3.487,4.859
				c-21.02,32.513-13.914,76.955,15.872,99.258c29.784,22.304,70.971,14.026,91.992-18.49c1.076-1.667,2.031-3.38,2.96-5.105
				c16.814,8.115,34.37,14.833,52.545,20.091c-0.323,1.98-0.618,3.973-0.789,6.01c-3.311,39.311,23.437,73.659,59.742,76.716
				c36.305,3.057,68.421-26.332,71.731-65.643c0.171-2.035,0.213-4.05,0.226-6.057c18.801-2.143,37.231-5.831,55.165-11.02
				c0.629,1.857,1.283,3.705,2.066,5.528c15.284,35.573,54.506,50.624,87.604,33.617c33.096-17.008,47.536-59.634,32.25-95.205
				c-0.8-1.859-1.701-3.629-2.626-5.374c15.232-11.906,29.599-25.055,42.982-39.334c1.432,1.282,2.891,2.541,4.446,3.707
				c29.787,22.305,70.972,14.027,91.993-18.489c21.021-32.517,13.914-76.955-15.872-99.26c-1.526-1.142-3.098-2.151-4.68-3.134
				c7.726-18.296,14.174-37.373,19.277-57.103C2721.185,1310.799,2723.024,1311.091,2724.904,1311.25z M2351.626,1468.395
				c-131.817-11.101-228.93-135.806-216.908-278.537c12.021-142.731,128.625-249.437,260.441-238.333
				c131.817,11.102,228.93,135.806,216.909,278.537C2600.046,1372.793,2483.442,1479.499,2351.626,1468.395z"/>
		</g>
		<g>
			
				<linearGradient id="SVGID_00000065761042774543192080000012226639786626791326_" gradientUnits="userSpaceOnUse" x1="1708.1067" y1="2996.8975" x2="1523.6873" y2="3074.3535">
				<stop  offset="0" style="stop-color:#40447E"/>
				<stop  offset="0.9964" style="stop-color:#3C3B6B"/>
			</linearGradient>
			<path style="fill:url(#SVGID_00000065761042774543192080000012226639786626791326_);" d="M2481.677,2871.527l-1168.272-10.206
				l-263.607-2.305l-440.819,32.612c-9.644,0.714-17.177,8.747-17.177,18.416v12.645c0,18.371,10.688,33.975,26.195,36.74
				l741.566,133.238c8.824,1.58,17.791,1.976,26.68,1.25l1801.364-151.904c16.069-1.349,29.276-17.021,29.276-35.885v-28.214
				L2481.677,2871.527z"/>
			
				<linearGradient id="SVGID_00000136412108920869787540000010592917548658081712_" gradientUnits="userSpaceOnUse" x1="600.073" y1="2897.4043" x2="3215.3486" y2="2897.4043">
				<stop  offset="0" style="stop-color:#40447E"/>
				<stop  offset="0.9964" style="stop-color:#3C3B6B"/>
			</linearGradient>
			<path style="fill:url(#SVGID_00000136412108920869787540000010592917548658081712_);" d="M3215.349,2877.914l-1829.197,154.274
				c-8.89,0.757-17.812,0.329-26.635-1.251l-759.444-136.288l448.821-35.634l1305.635-96.396c9.383-0.691,18.767-0.396,28.084,0.889
				L3215.349,2877.914z"/>
			
				<linearGradient id="SVGID_00000024703922249263421590000016628339962989929608_" gradientUnits="userSpaceOnUse" x1="847.7073" y1="2875.9028" x2="2771.0925" y2="2875.9028">
				<stop  offset="0" style="stop-color:#40447E"/>
				<stop  offset="0.9964" style="stop-color:#3C3B6B"/>
			</linearGradient>
			<polygon style="opacity:0.3;fill:url(#SVGID_00000024703922249263421590000016628339962989929608_);" points="847.707,2896.17 
				2316.511,2786.108 2771.093,2848.046 1314.942,2965.697 			"/>
		</g>
		<g>
			<g>
				
					<linearGradient id="SVGID_00000036969350609954996150000009579130154669247640_" gradientUnits="userSpaceOnUse" x1="1511.0696" y1="1538.8021" x2="1303.9714" y2="1625.7832" gradientTransform="matrix(0.9834 -0.1815 0.1815 0.9834 -261.5121 814.1179)">
					<stop  offset="0" style="stop-color:#40447E"/>
					<stop  offset="0.9964" style="stop-color:#3C3B6B"/>
				</linearGradient>
				<path style="fill:url(#SVGID_00000036969350609954996150000009579130154669247640_);" d="M2577.213,2529.993L818.696,2985.006
					c-33.588,8.69-66.049-11.824-72.333-45.866L494.629,1575.303c-6.283-34.042,16.617-65.328,50.973-69.856l1798.745-237.068
					c24.85-3.275,49.212,17.392,54.52,46.147l212.64,1152.04C2616.815,2495.321,2601.507,2523.706,2577.213,2529.993z"/>
				
					<linearGradient id="SVGID_00000165948457389521855770000011106314866860801171_" gradientUnits="userSpaceOnUse" x1="636.324" y1="1579.429" x2="2552.3464" y2="1579.429" gradientTransform="matrix(0.9834 -0.1815 0.1815 0.9834 -261.5121 814.1179)">
					<stop  offset="0" style="stop-color:#40447E"/>
					<stop  offset="0.9964" style="stop-color:#3C3B6B"/>
				</linearGradient>
				<path style="fill:url(#SVGID_00000165948457389521855770000011106314866860801171_);" d="M2603.859,2525.204L848.953,2979.422
					c-33.518,8.675-65.915-11.824-72.192-45.829L525.294,1571.195c-6.277-34.006,16.57-65.255,50.854-69.773l1795.076-236.585
					c24.802-3.269,49.119,17.381,54.421,46.108l212.43,1150.903C2643.378,2490.574,2628.105,2518.928,2603.859,2525.204z"/>
				
					<linearGradient id="SVGID_00000178883574718530236370000012864152733635506075_" gradientUnits="userSpaceOnUse" x1="1805.3423" y1="1540.8058" x2="960.9579" y2="3447.48">
					<stop  offset="0" style="stop-color:#AA80F9"/>
					<stop  offset="0.9964" style="stop-color:#6165D7"/>
				</linearGradient>
				<path style="fill:url(#SVGID_00000178883574718530236370000012864152733635506075_);" d="M2536.719,2453.136L900.568,2862.313
					c-27.177,6.796-53.442-10.111-58.551-37.792L622.489,1635.164c-5.109-27.681,13.314-53.26,41.033-57.115l1668.836-232.099
					c20.515-2.854,40.63,14.039,45.001,37.721l187.806,1017.495C2569.536,2424.845,2556.833,2448.107,2536.719,2453.136z"/>
				<path style="fill:#FFFFFF;" d="M1572.197,1406.935c2.252,12.2-5.105,23.35-16.453,24.906
					c-11.371,1.56-22.437-7.101-24.698-19.347s5.148-23.403,16.528-24.917C1558.93,1386.065,1569.945,1394.733,1572.197,1406.935z"
					/>
				<path style="opacity:0.48;fill:#FFFFFF;" d="M2130.001,2243.525c-147.527-53.259-235.823,60.085-356.396-17.782
					c-73.538-47.492-50.565-95.517-144.164-169.592c-104.279-82.527-154.975-41.487-258.929-114.845
					c-132.378-93.417-92.019-187.36-203.601-252.738c-136.396-79.917-248.861,27.707-380.937-49.6
					c-57.292-33.535-95.566-88.577-121.457-149.193l-114.151,15.045c-20.096,2.649-33.45,20.983-29.765,40.943l260.668,1412.244
					c3.684,19.96,22.645,32.002,42.29,26.912l1789.403-463.675c8.225-2.131,14.656-8.663,18.006-17.058
					c-125.761,17.496-211.338-13.574-269.573-51.277C2246.852,2378.752,2247.25,2285.853,2130.001,2243.525z"/>
			</g>
			<g>
				<polygon style="fill:#FFFFFF;" points="2386.772,1664.652 724.435,1936 665.14,1614.75 2335.59,1387.358 				"/>
				<polygon style="fill:#FFFFFF;" points="1980.868,2288.993 920.989,2516.303 821.801,1978.923 1890.475,1799.265 				"/>
				<polygon style="fill:#FFFFFF;" points="2356.458,1866.337 1977.42,1935.299 1950.45,1789.182 2330.427,1725.303 				"/>
				<polygon style="fill:#FFFFFF;" points="2417.199,2195.414 2040.349,2276.236 1986.971,1987.048 2365.678,1916.286 				"/>
				<polygon style="fill:#FFFFFF;" points="2429.13,2260.054 934.628,2590.193 958.185,2717.821 2449.738,2371.705 				"/>
			</g>
		</g>
		<g>
			
				<linearGradient id="SVGID_00000106850607475106142230000006617332427754248126_" gradientUnits="userSpaceOnUse" x1="1075.3979" y1="1967.464" x2="842.8098" y2="3082.6094">
				<stop  offset="0" style="stop-color:#FFC444"/>
				<stop  offset="0.9964" style="stop-color:#F36F56"/>
			</linearGradient>
			<path style="fill:url(#SVGID_00000106850607475106142230000006617332427754248126_);" d="M1127.315,2287.164
				c20.235-21.605-35.783-102.771-65.766-138.336c-26.194-31.071-53.116-63.006-86.176-58.963
				c-29.026,3.55-57.271,34.161-58.963,63.499C911.858,2232.288,1098.548,2317.878,1127.315,2287.164z"/>
			
				<linearGradient id="SVGID_00000106129121072599902160000005937527638489689509_" gradientUnits="userSpaceOnUse" x1="1347.9082" y1="3129.0007" x2="1417.5643" y2="3129.0007" gradientTransform="matrix(-0.9996 0.0289 0.0289 0.9996 2205.6753 -31.2392)">
				<stop  offset="0" style="stop-color:#444B8C"/>
				<stop  offset="0.9964" style="stop-color:#26264F"/>
			</linearGradient>
			<path style="fill:url(#SVGID_00000106129121072599902160000005937527638489689509_);" d="M884.355,3121.215
				c-3.809,3.096-4.51,10.828-4.967,15.883c-0.206,2.258-0.307,3.387-0.055,4.184c1.84,5.817,13.122,6.428,30.812,8.236
				c27.956,2.856,36.275,5.056,38.463,0.896c2.05-3.899-2.911-10.282-3.47-10.986c-3.004-3.784-6.691-5.16-13.819-7.506
				c-13.189-4.341-22.101-6.719-24.799-7.438C889.671,3119.986,886.857,3119.182,884.355,3121.215z"/>
			<path style="fill:#D8DEE8;" d="M900.981,3095.675l2.798,31.857c-0.794,1.538-10.263,6.153-17.784,2.196l-7.188-31.314
				L900.981,3095.675z"/>
			
				<linearGradient id="SVGID_00000101084721418292917760000014119968291415582133_" gradientUnits="userSpaceOnUse" x1="1889.6707" y1="3032.8325" x2="1963.6758" y2="3032.8325" gradientTransform="matrix(-0.9642 0.2651 0.2651 0.9642 2192.8501 -308.9189)">
				<stop  offset="0" style="stop-color:#444B8C"/>
				<stop  offset="0.9964" style="stop-color:#26264F"/>
			</linearGradient>
			<path style="fill:url(#SVGID_00000101084721418292917760000014119968291415582133_);" d="M1106.063,3117.121
				c-4.565,5.042-5.605,14.325-1.636,18.898c3.902,4.497,9.77,1.124,26.411,1.621c17.826,0.533,22.48,4.743,34.593,1.4
				c4.894-1.353,13.537-4.634,13.373-8.128c-0.115-2.458-4.516-3.727-19.212-8.65c-20.861-6.988-20.769-7.37-25.199-8.104
				C1123.266,3112.315,1112.093,3110.464,1106.063,3117.121z"/>
			<path style="fill:#D8DEE8;" d="M1117.484,3088.047l8.941,29.74c-0.676,1.595-9.765,6.917-17.565,3.546l-13.278-28.865
				L1117.484,3088.047z"/>
			
				<linearGradient id="SVGID_00000157299429354677313310000005027815819121582521_" gradientUnits="userSpaceOnUse" x1="879.548" y1="2771.3064" x2="1126.0778" y2="2771.3064">
				<stop  offset="0" style="stop-color:#AA80F9"/>
				<stop  offset="0.9964" style="stop-color:#6165D7"/>
			</linearGradient>
			<path style="fill:url(#SVGID_00000157299429354677313310000005027815819121582521_);" d="M1038.046,2436.701
				c1.281,99.948,8.101,212.328,24.466,334.422c16.174,120.671,38.84,229.704,63.565,325.582
				c-11.407,3.069-22.814,6.138-34.22,9.207c-28.94-26.985-65.447-69.464-83.063-129.493
				c-10.933-37.258-7.289-56.403-14.225-102.229c-11.042-72.966-33.409-111.194-56.526-170.033
				c-20.774-52.873-45.329-130.469-58.495-234.191C932.381,2458.877,985.214,2447.789,1038.046,2436.701z"/>
			
				<linearGradient id="SVGID_00000023960144009690327940000012071267044602399661_" gradientUnits="userSpaceOnUse" x1="760.9633" y1="2769.7129" x2="935.0787" y2="2769.7129">
				<stop  offset="0" style="stop-color:#AA80F9"/>
				<stop  offset="0.9964" style="stop-color:#6165D7"/>
			</linearGradient>
			<path style="fill:url(#SVGID_00000023960144009690327940000012071267044602399661_);" d="M935.079,2427.164
				c-6.982,127.117-12.724,256.601-17.075,388.377c-3.266,98.885-5.664,196.516-7.258,292.862
				c-11.652,1.438-23.304,2.878-34.957,4.316c-11.259-20.962-26.213-53.011-36.457-94.088
				c-12.442-49.889-9.561-79.516-15.018-131.222c-6.122-57.992-15.015-70.626-30.768-143.783
				c-31.973-148.469-47.961-222.704-12.294-268.882C792.83,2459.753,829.126,2422.148,935.079,2427.164z"/>
			
				<linearGradient id="SVGID_00000011712665779432324170000017213071704000638374_" gradientUnits="userSpaceOnUse" x1="994.8638" y1="1950.6667" x2="762.2761" y2="3065.8093">
				<stop  offset="0" style="stop-color:#FFC444"/>
				<stop  offset="0.9964" style="stop-color:#F36F56"/>
			</linearGradient>
			<path style="fill:url(#SVGID_00000011712665779432324170000017213071704000638374_);" d="M765.26,2107.683
				c27.288-7.673,67.28-16.647,116.258-19.416c69.856-3.948,104.784-5.923,129.535,10.712
				c57.166,38.422,12.908,127.099,36.308,346.921c3.342,31.392,4.091,63.008,6.511,94.484c4.007,52.116,4.92,54.946,1.293,60.227
				c-22.74,33.116-107.58-16.834-231.93,2.91c-69.577,11.048-101.132,36.5-120.193,18.143
				c-22.23-21.409-3.161-78.993,13.252-128.563c18.841-56.9,30.48-57.632,41.175-100.484c11.178-44.79,4.417-67.852,2.676-138.482
				C759.312,2220.338,759.49,2170.043,765.26,2107.683z"/>
			<g style="opacity:0.3;">
				
					<linearGradient id="SVGID_00000092452616080918288510000000565613240113782687_" gradientUnits="userSpaceOnUse" x1="794.8401" y1="2904.3774" x2="883.1124" y2="2485.0854">
					<stop  offset="0" style="stop-color:#FFC444"/>
					<stop  offset="0.9964" style="stop-color:#F36F56"/>
				</linearGradient>
				<path style="fill:url(#SVGID_00000092452616080918288510000000565613240113782687_);" d="M934.357,2520.37
					c-32.501-2.543-53.586,15.832-81.641,1.512c-38.471-19.636-50.832-80.732-48.38-123.973
					c3.725-65.699,41.24-83.017,34.773-125.485c-3.497-22.967-19.894-53.458-78.766-84.61c-0.785,26.218-0.636,48.566-0.198,66.321
					c1.741,70.631,8.502,93.692-2.676,138.482c-10.695,42.852-22.334,43.584-41.175,100.484
					c-16.414,49.571-35.482,107.154-13.252,128.563c19.062,18.358,50.617-7.095,120.193-18.143
					c107.147-17.013,184.917,17.675,218.943,6.425C1001.061,2542.002,963.768,2522.671,934.357,2520.37z"/>
			</g>
			
				<linearGradient id="SVGID_00000119099207348101566820000016006935222358134162_" gradientUnits="userSpaceOnUse" x1="835.5323" y1="1917.4348" x2="602.9446" y2="3032.5781">
				<stop  offset="0" style="stop-color:#FFC444"/>
				<stop  offset="0.9964" style="stop-color:#F36F56"/>
			</linearGradient>
			<path style="fill:url(#SVGID_00000119099207348101566820000016006935222358134162_);" d="M809.593,2112.193
				c-23.212-19.073-69.885,2.517-82.362,8.288c-69.575,32.183-132.044,118.906-116.566,210.555
				c2.321,13.745,13.085,78.036,67.525,109.187c49.121,28.108,115.448,20.879,168.591-18.931
				c7.262-6.445,14.526-12.888,21.789-19.333c7.144-7.723,14.291-15.446,21.435-23.17c-11.232-9.342-30.315-22.82-57.117-31.468
				c-35.336-11.403-61.061,9.057-77.456-6.498c-11.315-10.735-11.34-29.695-8.546-41.187c5.632-23.16,26.048-29.674,43.088-46.112
				C830.01,2214.904,837.385,2135.03,809.593,2112.193z"/>
			<g>
				
					<linearGradient id="SVGID_00000095301584073465279060000012757968673909671356_" gradientUnits="userSpaceOnUse" x1="1033.8254" y1="2540.0156" x2="996.1885" y2="2433.3772">
					<stop  offset="0" style="stop-color:#311944"/>
					<stop  offset="1" style="stop-color:#893976"/>
				</linearGradient>
				<polygon style="fill:url(#SVGID_00000095301584073465279060000012757968673909671356_);" points="1143.172,2411.387 
					832.043,2406.742 914.777,2446.671 1143.968,2431.671 				"/>
				
					<linearGradient id="SVGID_00000046309561165257850560000006620410455595042489_" gradientUnits="userSpaceOnUse" x1="869.4062" y1="2385.5129" x2="883.2064" y2="2480.8604">
					<stop  offset="0" style="stop-color:#311944"/>
					<stop  offset="1" style="stop-color:#893976"/>
				</linearGradient>
				<path style="fill:url(#SVGID_00000046309561165257850560000006620410455595042489_);" d="M821.063,2415.01v0.001
					c0,5.822,3.643,11.023,9.116,13.013l99.416,38.974l0.453-27.02l-98.004-33.237
					C826.543,2405.162,821.063,2409.289,821.063,2415.01z"/>
			</g>
			<path style="fill:#FFFFFF;" d="M868.971,2396.601c-1.909-0.426,9.302-22.767,18.105-20.189c8.8,2.579,51.849,27.527,55.762,37.8
				c3.913,10.272,3.913,10.272,3.913,10.272s-18.779,1.468-30.424-2.445C904.681,2418.126,884.498,2400.063,868.971,2396.601z"/>
			<g>
				<g>
					
						<linearGradient id="SVGID_00000121272060805961940380000008842841849782320033_" gradientUnits="userSpaceOnUse" x1="1142.8514" y1="2393.864" x2="1069.4729" y2="2289.6667">
						<stop  offset="0" style="stop-color:#444B8C"/>
						<stop  offset="0.9964" style="stop-color:#26264F"/>
					</linearGradient>
					<path style="fill:url(#SVGID_00000121272060805961940380000008842841849782320033_);" d="M938.301,2250.396l-21.931,199.681
						c-0.757,6.89,8.889,17.155,15.813,16.827l321.724-19.75c5.287-0.251,9.689-4.142,10.583-9.358l40.381-192.858
						c1.205-7.018-11.411-14.267-18.53-14.068l-337.147,9.48C943.565,2240.51,938.915,2244.796,938.301,2250.396z"/>
					
						<linearGradient id="SVGID_00000065059049081611451620000003327565379184618914_" gradientUnits="userSpaceOnUse" x1="1002.0983" y1="2566.3091" x2="1162.6836" y2="2240.1204">
						<stop  offset="0" style="stop-color:#311944"/>
						<stop  offset="1" style="stop-color:#893976"/>
					</linearGradient>
					<path style="fill:url(#SVGID_00000065059049081611451620000003327565379184618914_);" d="M945.654,2256.218l-21.931,199.684
						c-0.756,6.89,4.822,12.825,11.745,12.499l325.793-15.424c5.286-0.25,9.688-4.142,10.583-9.357l33.285-193.74
						c1.205-7.02-4.315-13.386-11.433-13.185l-337.147,9.48C950.919,2246.331,946.267,2250.62,945.654,2256.218z"/>
				</g>
				
					<linearGradient id="SVGID_00000155104788581537240120000012268692697755557796_" gradientUnits="userSpaceOnUse" x1="923.6537" y1="2356.9504" x2="1276.4373" y2="2356.9504">
					<stop  offset="0" style="stop-color:#311944"/>
					<stop  offset="1" style="stop-color:#893976"/>
				</linearGradient>
				<path style="opacity:0.3;fill:url(#SVGID_00000155104788581537240120000012268692697755557796_);" d="M1136.959,2406.186
					c-28.447-12.057-18.406-35.049-51.999-63.699c-44.316-37.796-89.486-21.404-105.299-50.699
					c-4.924-9.125-7.276-23.322,1.301-46.3l-24.414,0.686c-5.63,0.157-10.281,4.446-10.894,10.043l-21.931,199.684
					c-0.755,6.889,4.823,12.825,11.745,12.499l325.793-15.424c5.286-0.25,9.688-4.141,10.583-9.357l4.593-26.734
					c-9.885-5.501-21.697-10.503-35.48-13.299C1193.161,2393.891,1169.71,2420.067,1136.959,2406.186z"/>
			</g>
			<path style="fill:#D8DEE8;" d="M1281.785,2425.047c0.53-1.609-0.593-3.266-2.285-3.352c-6.885-0.351-22.855-0.494-31.672,4.905
				c-11.453,7.015-26.261,19.816-13.79,26.275l11.645,6.033c0.535,0.277,1.117,0.363,1.704,0.235
				c4.138-0.91,21.553-4.773,23.458-5.733C1272.579,2452.538,1279.219,2432.833,1281.785,2425.047z"/>
			<g>
				<path style="fill:#FFFFFF;" d="M886.734,2011.946c0.174,20.71-2.137,37.134-4.323,48.382
					c-2.503,12.887-4.308,16.217-6.61,18.918c-3.466,4.067-8.718,7.478-38.394,14.837c-16.149,4.003-18.227,3.895-18.583,5.497
					c-1.739,7.818,42.296,34.462,87.791,28.04c27.843-3.93,53.177-19.815,51.622-28.157c-1.565-8.395-29.378-3.89-37.667-19.078
					c-5.767-10.566,0.697-25.565,8.338-37.987C921.505,2028.533,894.133,2025.812,886.734,2011.946z"/>
				<g>
					
						<linearGradient id="SVGID_00000083077074957997670740000016048544536032349842_" gradientUnits="userSpaceOnUse" x1="1185.2728" y1="1949.918" x2="1132.5969" y2="1816.1309" gradientTransform="matrix(-1 0.0037 0.0037 1 2039.0248 162.9159)">
						<stop  offset="0" style="stop-color:#311944"/>
						<stop  offset="1" style="stop-color:#6B3976"/>
					</linearGradient>
					<path style="fill:url(#SVGID_00000083077074957997670740000016048544536032349842_);" d="M938.412,2020.134
						c6.571-8.729,6.976-23.968-0.595-33.601c-6.516-8.289-16.769-9.471-22.908-10.181c-17.788-2.054-40.232,5.372-48.039,21.743
						c-4.626,9.702,5.381,29.861,6.947,33.485c1.775,4.098,4.991,5.504,7.968,8.602c4.124,4.297,10.581,11.13,21.121,22.556
						c0.819-3.372,2.064-7.546,4.042-12.07c0.762-1.742,3.82-8.543,8.447-14.183
						C924.666,2025.181,932.183,2028.407,938.412,2020.134z"/>
					<path style="fill:#FFFFFF;" d="M887.872,2053.131c0,0,11.694,19.184,34.976,17.67c20.846-1.357,23.899-48.105,10.584-58.025
						c-4.442-3.309-13.338-4.683-20.572-2.657c-4.272,1.198-5.72,2.973-12.738,4.793c-6.475,1.681-8.303,0.963-10.258,2.606
						c-2.444,2.058-4.235,7.101-0.153,20.768c-3.977-4.026-8.751-5.572-12.134-3.975c-0.539,0.256-1.97,1.229-2.776,2.704
						C871.888,2042.354,876.765,2049.174,887.872,2053.131z"/>
					
						<linearGradient id="SVGID_00000106106616408371343980000002600339118225765562_" gradientUnits="userSpaceOnUse" x1="1169.1808" y1="1956.3242" x2="1116.4515" y2="1822.4015" gradientTransform="matrix(-1 0.0037 0.0037 1 2039.0248 162.9159)">
						<stop  offset="0" style="stop-color:#311944"/>
						<stop  offset="1" style="stop-color:#6B3976"/>
					</linearGradient>
					<path style="fill:url(#SVGID_00000106106616408371343980000002600339118225765562_);" d="M888.922,2014.723
						c1.005,0.75-2.068,4.5-2.297,9.809c-0.446,10.304,9.984,22.674,20.624,23.722c6.291,0.62,8.02-3.172,18.419-4.271
						c6.438-0.68,11.798,0.139,15.17,0.875c3.268,11.302,0.193,22.569-7.361,27.797c-8.132,5.629-18.521,2.214-22.864,0.786
						c-2.906-0.956-12.216-3.996-17.082-12.535c-5.07-8.898-0.094-14.261-5.911-20.279c-2.934-3.036-6.787-4.35-10.539-10.227
						c-1.019-1.597-1.698-3.009-2.115-3.959C880.345,2020.743,887.467,2013.637,888.922,2014.723z"/>
					<path style="fill:#FFFFFF;" d="M933.272,2049.048c0,0-4.502,2.352-12.282,1.915c-0.378-0.022-0.796,0.09-0.844,0.285
						c-0.179,0.738,4.812,4.047,9.411,2.755c3.265-0.919,5.806-4.01,5.367-4.797
						C934.737,2048.875,933.998,2048.918,933.272,2049.048z"/>
				</g>
			</g>
		</g>
		<g>
			<g>
				
					<linearGradient id="SVGID_00000026153855555772903880000001016078965258894005_" gradientUnits="userSpaceOnUse" x1="2003.9049" y1="2508.9189" x2="3054.3274" y2="1011.4316">
					<stop  offset="0" style="stop-color:#311944"/>
					<stop  offset="1" style="stop-color:#893976"/>
				</linearGradient>
				<path style="fill:url(#SVGID_00000026153855555772903880000001016078965258894005_);" d="M2980.625,2266.421
					c-30.302,40.517-64.18,76.914-100.985,109.054c-47.6,41.537-104.494,82.021-164.214,113.992
					c3.405-2.996,6.776-6.062,10.113-9.159c92.951-86.142,158.731-200.541,203.537-303.128
					c189.101-285.83,122.844-690.93-156.448-919.459c-120.529-98.637-264.074-151.955-411.433-154.202
					c-8.001-0.136-16.038-0.101-24.038,0.068c-20.089,0.442-40.245,1.839-60.401,4.223c-24.616,2.893-47.905-15.526-51.956-41.13
					c-3.031-18.966,5.312-36.5,19.782-45.555c5.107-3.167,10.997-5.312,17.398-6.062c16.342-1.907,32.651-3.302,48.96-4.086
					c4.665-0.238,9.33-0.442,13.96-0.579c179.329-5.446,355.357,55.668,501.557,175.313
					C3155.733,1455.097,3224.882,1939.902,2980.625,2266.421z"/>
				<g>
					
						<linearGradient id="SVGID_00000013186756777863616600000010349539673154784405_" gradientUnits="userSpaceOnUse" x1="2622.8381" y1="2401.5134" x2="3923.4666" y2="547.3315" gradientTransform="matrix(-0.977 0.2133 0.2133 0.977 5754.7085 -624.4164)">
						<stop  offset="0" style="stop-color:#311944"/>
						<stop  offset="1" style="stop-color:#893976"/>
					</linearGradient>
					<polygon style="fill:url(#SVGID_00000013186756777863616600000010349539673154784405_);" points="2480.639,1187.784 
						2295.527,1057.158 2409.666,875.581 2279.108,900.687 2168.959,1081.18 2353.269,1208.551 					"/>
				</g>
			</g>
			<g>
				
					<linearGradient id="SVGID_00000110468179158403204190000013086036055266081453_" gradientUnits="userSpaceOnUse" x1="2009.014" y1="2483.469" x2="3033.5457" y2="1022.892">
					<stop  offset="0" style="stop-color:#FFC444"/>
					<stop  offset="0.9964" style="stop-color:#F36F56"/>
				</linearGradient>
				<path style="fill:url(#SVGID_00000110468179158403204190000013086036055266081453_);" d="M2963.669,2272.413
					c-30.302,40.516-64.179,76.913-100.951,109.054c-40.38,35.24-87.4,69.697-137.178,98.842
					c92.951-86.142,158.731-200.541,203.537-303.128c14.404-32.924,26.626-64.656,36.874-93.836
					c117.807-274.287,37.828-616.672-210.278-819.665c-113.209-92.611-246.71-145.316-384.603-153.215
					c-8.411-0.477-16.854-0.816-25.332-0.953c-28.533-0.512-57.234,0.918-85.902,4.289c-24.651,2.859-47.906-15.526-51.991-41.13
					c-4.052-25.468,12.394-48.415,36.738-51.547c0.169-0.035,0.306-0.035,0.475-0.07c20.873-2.451,41.708-4.017,62.513-4.663
					c4.597-0.136,9.192-0.239,13.754-0.273c174.666-2.111,345.585,58.902,488.211,175.584
					C3138.775,1461.056,3207.928,1945.895,2963.669,2272.413z"/>
				<g>
					
						<linearGradient id="SVGID_00000139252665183051909530000009652745250621120389_" gradientUnits="userSpaceOnUse" x1="2650.2083" y1="2388.271" x2="3938.6296" y2="551.4914" gradientTransform="matrix(-0.977 0.2133 0.2133 0.977 5754.7085 -624.4164)">
						<stop  offset="0" style="stop-color:#FFC444"/>
						<stop  offset="0.9964" style="stop-color:#F36F56"/>
					</linearGradient>
					<polygon style="fill:url(#SVGID_00000139252665183051909530000009652745250621120389_);" points="2462.978,1190.494 
						2278.58,1063.14 2392.903,878.805 2266.028,903.169 2152.012,1087.162 2336.322,1214.533 					"/>
				</g>
			</g>
		</g>
		<g>
			
				<linearGradient id="SVGID_00000158727686685745637930000005228579692794558374_" gradientUnits="userSpaceOnUse" x1="2092.7366" y1="2269.6504" x2="2035.9803" y2="2380.4277">
				<stop  offset="0" style="stop-color:#FFC444"/>
				<stop  offset="0.9964" style="stop-color:#F36F56"/>
			</linearGradient>
			<path style="fill:url(#SVGID_00000158727686685745637930000005228579692794558374_);" d="M2101.393,2282.627
				c0,0-14.045-9.164-22.982-6.391c-8.938,2.773-10.64,5.752-4.469,6.391c6.171,0.638-8.512,6.171-19.578,4.681
				c-11.065-1.49-19.577,16.896-4.894,19.088s36.079,0.06,49.002-5.258c12.922-5.318,19.306-7.446,19.306-7.446
				S2113.735,2281.138,2101.393,2282.627z"/>
			
				<linearGradient id="SVGID_00000048495674245393747110000010331840234931473077_" gradientUnits="userSpaceOnUse" x1="5274.6055" y1="1373.8666" x2="5243.7905" y2="1469.1127" gradientTransform="matrix(-0.9545 0.2981 0.2981 0.9545 7100.7539 -1286.4933)">
				<stop  offset="0" style="stop-color:#FFC444"/>
				<stop  offset="0.9964" style="stop-color:#F36F56"/>
			</linearGradient>
			<path style="fill:url(#SVGID_00000048495674245393747110000010331840234931473077_);" d="M2486.693,1624.132
				c0.477-2.728-2.698-13.016-1.347-15.38c2.215-3.876,0.859-4.446,4.023-7.596c1.623-1.616,3.024-3.74,2.708-6.097
				c-0.696-5.185-15.031-25.211-15.031-25.211s-6.754,7.481-2.792,11.357c3.961,3.876,7.21,8.392,3.889,12.455
				c-3.321,4.062-4.725,9.39-4.849,14.875c-0.125,5.485,4.345,20.729,4.345,20.729S2485.551,1630.668,2486.693,1624.132z"/>
			
				<linearGradient id="SVGID_00000143609184984901830640000012148896796889075109_" gradientUnits="userSpaceOnUse" x1="5373.6875" y1="1694.2046" x2="5526.3076" y2="1694.2046" gradientTransform="matrix(-0.9905 0.1374 0.1374 0.9905 7714.2422 -580.3899)">
				<stop  offset="0" style="stop-color:#FF9085"/>
				<stop  offset="1" style="stop-color:#FB6FBB"/>
			</linearGradient>
			<path style="fill:url(#SVGID_00000143609184984901830640000012148896796889075109_);" d="M2490.467,1621.606
				c7.575,22.43,20.519,56.248,41.817,94.66c41.442,74.741,69.681,86.003,91.828,150.475c5.333,15.526,19.156,59.88,9.803,113.534
				c-3.991,22.896-28.834,81.557-43.851,91.938c-32.411,22.402-82.057-45.027-98.041-88.129
				c-13.644-36.792,24.406-53.336,22.721-110.213c-1.704-57.529-41.55-71.542-53.569-135.604
				c-5.623-29.971-4.671-68.309,14.272-115.66C2480.454,1622.272,2485.46,1621.942,2490.467,1621.606z"/>
			
				<linearGradient id="SVGID_00000036969016348188181280000010116176188953265330_" gradientUnits="userSpaceOnUse" x1="2573.9797" y1="2330.3472" x2="2485.4558" y2="2811.5554">
				<stop  offset="0" style="stop-color:#311944"/>
				<stop  offset="1" style="stop-color:#893976"/>
			</linearGradient>
			<path style="fill:url(#SVGID_00000036969016348188181280000010116176188953265330_);" d="M2512.658,2809.681l1.145,13.821
				c0.249,2.997-1.636,5.744-4.532,6.551c-10.202,2.84-34.171,8.574-52.898,5.77c-24.455-3.661,39.66-26.142,39.66-26.142H2512.658z
				"/>
			
				<linearGradient id="SVGID_00000173119885296550461810000004444245229073830786_" gradientUnits="userSpaceOnUse" x1="4695.7461" y1="2891.9751" x2="4696.9912" y2="2641.7046" gradientTransform="matrix(-1 0 0 1 7194.1758 0)">
				<stop  offset="0" style="stop-color:#FFC444"/>
				<stop  offset="0.9964" style="stop-color:#F36F56"/>
			</linearGradient>
			<path style="fill:url(#SVGID_00000173119885296550461810000004444245229073830786_);" d="M2509.667,2783.521l2.99,26.16
				c0,0-10.344,7.01-16.625,0l-12.767-23.771L2509.667,2783.521z"/>
			
				<linearGradient id="SVGID_00000060721165152450074690000010617958125989380008_" gradientUnits="userSpaceOnUse" x1="2252.5823" y1="2271.2214" x2="2164.0579" y2="2752.4314">
				<stop  offset="0" style="stop-color:#311944"/>
				<stop  offset="1" style="stop-color:#893976"/>
			</linearGradient>
			<path style="fill:url(#SVGID_00000060721165152450074690000010617958125989380008_);" d="M2190.983,2823.651l-4.24,15.639
				c-1.298,4.177-4.994,7.14-9.353,7.502c-15.266,1.267-50.667,3.377-66.374-2.607c-20.32-7.74,59.592-22.851,59.592-22.851
				L2190.983,2823.651z"/>
			
				<linearGradient id="SVGID_00000031176678358715263440000002641745216778587527_" gradientUnits="userSpaceOnUse" x1="5011.1499" y1="2887.4331" x2="5012.2988" y2="2656.4849" gradientTransform="matrix(-1 0 0 1 7194.1758 0)">
				<stop  offset="0" style="stop-color:#FFC444"/>
				<stop  offset="0.9964" style="stop-color:#F36F56"/>
			</linearGradient>
			<path style="fill:url(#SVGID_00000031176678358715263440000002641745216778587527_);" d="M2198.523,2802.891l-7.541,18.675
				c0,0-12.804,7.496-24.195,1.501l6.221-22.895L2198.523,2802.891z"/>
			
				<linearGradient id="SVGID_00000056415763357224520000000014849699158759192986_" gradientUnits="userSpaceOnUse" x1="4714.4692" y1="2277.5547" x2="4776.5166" y2="2840.5688" gradientTransform="matrix(-1 0 0 1 7194.1758 0)">
				<stop  offset="0" style="stop-color:#311944"/>
				<stop  offset="1" style="stop-color:#893976"/>
			</linearGradient>
			<path style="fill:url(#SVGID_00000056415763357224520000000014849699158759192986_);" d="M2494.347,2266.468
				c8.238,15.502,18.428,39.093,21.982,68.864c5.546,46.449-10.272,64.313-21.249,129.842
				c-6.986,41.705-14.304,85.395-3.958,138.123c8.743,44.564,22.119,54.887,27.353,99.793c4.563,39.147-0.819,72.342-6.319,94.793
				c-9.384,0.381-18.767,0.767-28.151,1.149c-30.75-41.05-65.475-98.891-87.757-173.392c-6.985-23.352-3.786-18.384-15.079-256.336
				c-1.219-25.673-2.68-55.736,17.235-78.132C2425.904,2260.247,2476.144,2264.206,2494.347,2266.468z"/>
			
				<linearGradient id="SVGID_00000102515318491014647300000010519169156640074397_" gradientUnits="userSpaceOnUse" x1="4797.4224" y1="2607.3386" x2="4970.5391" y2="2449.542" gradientTransform="matrix(-1 0 0 1 7194.1758 0)">
				<stop  offset="0" style="stop-color:#311944"/>
				<stop  offset="1" style="stop-color:#893976"/>
			</linearGradient>
			<path style="fill:url(#SVGID_00000102515318491014647300000010519169156640074397_);" d="M2456.813,2253.448
				c23.912,17.437,25.074,57.347,19.916,82.728c-8.246,40.579-34.87,54.977-139.741,163.985
				c-15.026,15.619-23.895,25.121-33.322,40.385c-27.482,44.502-27.602,86.081-31.344,114.86
				c-4.975,38.263-21.243,91.534-72.255,154.277c-4.442,1.136-12.128,2.451-21.313,0.646c-5.458-1.072-9.852-2.931-13.022-4.596
				c-1.678-62.72,3.117-155.335,36.002-261.206c37.548-120.879,95.905-208.145,137.115-260.443
				C2381.442,2244.668,2430.81,2234.484,2456.813,2253.448z"/>
			<g>
				
					<linearGradient id="SVGID_00000103958817630155677460000007519106748125139383_" gradientUnits="userSpaceOnUse" x1="-6510.0981" y1="3617.0491" x2="-6354.8779" y2="3812.3357" gradientTransform="matrix(0.9506 0.3105 -0.3105 0.9506 9804.7129 395.1405)">
					<stop  offset="0" style="stop-color:#FFC444"/>
					<stop  offset="0.9964" style="stop-color:#F36F56"/>
				</linearGradient>
				<path style="fill:url(#SVGID_00000103958817630155677460000007519106748125139383_);" d="M2505.207,1872.995
					c-3.066-13.818,4.307-26.05,5.929-28.684c6.79-11.027,8.455-12.493,11.504-14.3l4.226-2.296c0,0,0.242-0.082,0.496-0.156
					c2.675-0.789,11.628-0.566,13.417-0.079c5.718,1.555,10.574,25.462,6.975,58.683c0.17,1.283,0.331,2.577,0.483,3.88
					c0.169,1.45,0.324,2.892,0.468,4.325c1.172,11.774,8.462,22.072,19.114,27.225c20.342,9.839,22.722,14.273,22.18,16.396
					c-1.415,5.537-25.118,4.727-42.184,1.792c-37.219-6.403-59.773,6.003-57.443-0.566c1.015-2.86,21.01-12.76,29.803-32.119
					c-2.189,4.82,1.847-10.425,2.771-15.639C2520.676,1890.113,2507.465,1883.175,2505.207,1872.995z"/>
				<path style="fill:#26264F;" d="M2515.399,1817.589c-0.537,10.325,3.718,21.617,6.098,23.525c0.306,0.247,2.03,1.77,3.513,4.291
					c0.202,0.344,0.375,0.742,0.52,1.252c1.902,6.629-8.864,13.713-7.03,16.736c1.332,2.193,8.517-0.244,9.252,1.626
					c0.693,1.761-5.345,4.994-4.564,7.099c0.589,1.59,4.262,0.368,6.398,2.872c1.065,1.247,0.681,2.168,1.679,5.856
					c0.564,2.085,1.386,4.379,2.052,5.666c3.232,6.257,13.214,9.03,15.292,6.712c0.579-0.646,0.145-1.24,0.823-3.477
					c0,0,0.629-2.074,2.226-4.424c2.282-3.357,7.464-5.562,12.758-8.946c9.802-6.268,12.685-11.913,13.561-13.826
					c0.312-0.681,0.511-1.197,0.655-1.569c2.872-7.472,3.5-18.648,0.46-25.709c-5.094-11.83-18.323-7.079-28.272-19.07
					c-11.479-13.836-3.215-31.423-9.729-33.777C2533.911,1779.831,2516.391,1798.499,2515.399,1817.589z"/>
				
					<linearGradient id="SVGID_00000111186512629529903270000008634688074450410678_" gradientUnits="userSpaceOnUse" x1="-6502.9644" y1="3611.3787" x2="-6347.7451" y2="3806.6641" gradientTransform="matrix(0.9506 0.3105 -0.3105 0.9506 9804.7129 395.1405)">
					<stop  offset="0" style="stop-color:#FFC444"/>
					<stop  offset="0.9964" style="stop-color:#F36F56"/>
				</linearGradient>
				<path style="fill:url(#SVGID_00000111186512629529903270000008634688074450410678_);" d="M2522.346,1861.172
					c2.722-3.336,6.988,0.176,6.765,4.675c-0.223,4.5-4.839,8.935-9.018,7.813
					C2515.915,1872.537,2518.684,1865.663,2522.346,1861.172z"/>
			</g>
			
				<linearGradient id="SVGID_00000115480095751884036570000002349502366192847767_" gradientUnits="userSpaceOnUse" x1="4557.3018" y1="1947.4204" x2="4823.2021" y2="2376.292" gradientTransform="matrix(-0.9999 0.0145 0.0145 0.9999 7079.6162 2.6561)">
				<stop  offset="0" style="stop-color:#FF9085"/>
				<stop  offset="1" style="stop-color:#FB6FBB"/>
			</linearGradient>
			<path style="fill:url(#SVGID_00000115480095751884036570000002349502366192847767_);" d="M2402.766,1964.042
				c16.4-13.934,42.832-32.651,79.338-44.686c37.549-12.377,33.493-0.457,106.253-9.898c5.813-0.755,15.985-1.786,24.553,4.105
				c13.055,8.981,14.5,28.865,14.345,42.621c-0.57,50.714-23.733,93.436-36.847,137.352c-20.013,67.025,2.09,74.182-21.67,167.057
				c-14.186,55.448-27.281,73.29-41.274,85.24c-32.329,27.609-74.1,27.747-88.706,27.796
				c-49.023,0.163-64.884-22.971-116.979-27.619c-3.796-0.338-10.672-0.838-16.879-5.595
				c-16.639-12.754-12.636-44.095-10.158-60.579c16.613-110.479,51.932-194.142,51.932-194.142
				C2360.257,2053.524,2378.783,2011.933,2402.766,1964.042z"/>
			
				<linearGradient id="SVGID_00000063631909219762054410000004318572891895935125_" gradientUnits="userSpaceOnUse" x1="4556.4248" y1="1947.9702" x2="4822.3213" y2="2376.8359" gradientTransform="matrix(-0.9999 0.0145 0.0145 0.9999 7079.6162 2.6561)">
				<stop  offset="0" style="stop-color:#FF9085"/>
				<stop  offset="1" style="stop-color:#FB6FBB"/>
			</linearGradient>
			<path style="fill:url(#SVGID_00000063631909219762054410000004318572891895935125_);" d="M2294.744,2279.838
				c16.613-110.483,51.931-194.142,51.931-194.142c11.39-26.981,26.308-60.65,44.954-99.038
				c62.517,57.549,72.601,87.342,65.307,103.83c-10.507,23.748-57.665,21.318-63.272,48.258
				c-6.018,28.913,44.371,50.591,37.534,80.43c-5.714,24.938-44.283,24.535-47.186,47.185
				c-2.746,21.436,28.832,44.911,54.693,53.621c41.291,13.907,78.574-6.271,87.937-11.797
				c18.777-11.084,31.533-25.968,40.198-40.445c-13.46,49.803-26.009,66.677-39.375,78.093c-32.33,27.61-74.1,27.748-88.706,27.799
				c-49.024,0.163-64.884-22.973-116.979-27.619c-3.795-0.339-10.671-0.838-16.878-5.596
				C2288.263,2327.661,2292.266,2296.323,2294.744,2279.838z"/>
			
				<linearGradient id="SVGID_00000077321764374892748900000000099451458825698462_" gradientUnits="userSpaceOnUse" x1="4761.0234" y1="1943.0009" x2="5026.978" y2="2371.9607" gradientTransform="matrix(-1 0 0 1 7194.1758 0)">
				<stop  offset="0" style="stop-color:#FF9085"/>
				<stop  offset="1" style="stop-color:#FB6FBB"/>
			</linearGradient>
			<path style="fill:url(#SVGID_00000077321764374892748900000000099451458825698462_);" d="M2529.502,1927.484
				c-24.079-2.103-60.324-2.154-100.091,11.44c-96.188,32.88-152.173,124.801-175.874,163.717
				c-41.823,68.672-51.242,120.737-112.383,156.679c-16.905,9.937-32.276,15.416-42.35,18.449
				c-0.136,9.543-0.272,19.085-0.408,28.628c60.076-8.625,101.794-27.802,128.688-43.608
				c49.706-29.215,68.781-58.672,147.276-105.096c34.167-20.208,35.435-17.514,50.76-27.882
				C2464.193,2103.374,2509.639,2049.536,2529.502,1927.484z"/>
			
				<linearGradient id="SVGID_00000005244357002021353850000008429551641431659423_" gradientUnits="userSpaceOnUse" x1="4683.2397" y1="2280.9963" x2="4745.2861" y2="2844.0073" gradientTransform="matrix(-1 0 0 1 7194.1758 0)">
				<stop  offset="0" style="stop-color:#311944"/>
				<stop  offset="1" style="stop-color:#893976"/>
			</linearGradient>
			<path style="opacity:0.3;fill:url(#SVGID_00000005244357002021353850000008429551641431659423_);" d="M2418.513,2625.725
				c-12.664-44.214,33.976-67.221,26.044-134.82c-3.641-31.028-14.738-36.997-10.725-55.152
				c6.328-28.626,41.268-47.028,81.636-59.156c-4.005,23.353-13.225,45.817-20.387,88.577
				c-6.986,41.705-14.304,85.395-3.958,138.123c8.743,44.564,22.119,54.887,27.353,99.793c1.946,16.696,2.019,32.221,1.109,46.382
				c-5.36-13.654-12.718-28.191-22.94-42.554C2461.468,2657.502,2428.612,2660.985,2418.513,2625.725z"/>
		</g>
	</g>
</g>
</svg>
