<?xml version="1.0" encoding="UTF-8"?>
<svg version="1.1" viewBox="0 0 2048 701" width="1280" height="1280" xmlns="http://www.w3.org/2000/svg">
<path transform="translate(106,173)" d="m0 0h166l30 1 27 3 26 5 21 6 20 8 16 8 14 9 13 10 17 17 12 17 8 16 6 15 5 21 3 26v29l-3 28-6 29-6 20-10 24-9 17-9 14-12 16-12 14-13 13-11 9-15 11-20 12-25 12-30 10-23 5-24 3-19 1h-206l1-11 8-51 18-112 16-101 24-150zm159 107-9 10-1 3 9 10 2 3h3l7-9 3-3-1-5-7-9zm-39 7-4 8-3 16v11l2 9 3 3 13-8 13-5 11-3 1-2-5-9-8-8-14-10-5-2zm78 0-8 4-9 7-9 8-5 8v3l21 7 12 7 6 3 3-8v-16l-2-14-4-9zm-110 22-3 4 1 11 1 5 19 1-1-19-7-2zm138 0-9 3v17l3 1 15-1 3-9v-8l-3-3zm-74 20-11 3-12 6-11 10-7 11-5 12-1 5v19l4 13 7 12 10 10 11 7 12 4 6 1h14l12-3 13-7 10-9 6-7 5-10 3-13v-16l-3-12-6-12-10-11-11-7-12-5-5-1zm-70 9-15 4-4 3 1 6 8 12 9 10 11 8 2-1 4-15 5-11 7-12-3-3-5-1zm145-1-9 1-5 2 2 5 7 12 5 15 2 8 5-1 12-11 7-8 6-10 1-5-6-4-11-3zm-161 37-10 8-1 5 9 8 3 2 4-1 12-10-5-5-8-7zm187 0-9 7-4 3 2 4 8 6 3 3h4v-2l4-2 5-4 1-6-9-9zm-161 16-11 8-8 8-9 14-1 5 4 4 10 3 7 1h17l8-2 1-2-9-16-5-14-2-9zm137 0-5 18-8 16-2 6 4 2 7 1h12l12-2 9-4 2-4-5-10-7-9-9-9-8-5zm-25 47-13 8-23 8-1 4 8 10 12 10 10 6h5l4-5 3-13v-24l-1-4zm-88 1-2 6v19l3 14 3 6 4 1 11-6 11-9 10-11 1-4-21-7-17-9zm101 3 1 18 3 2h15l2-3-1-11-2-6zm-116 0-13 1-2 3-1 12 2 4 6 1 11-2 1-1 1-9v-9zm60 23-11 13 1 5 7 8 5 1 8-8 2-3-1-4-9-12z" fill="#060606"/>
<path transform="translate(722,173)" d="m0 0h171l3 2 24 119 22 111 19 94 19 93 1 9-162 1-5-1-2-13-4-37-1-2h-88l-28 1-16 40-5 11-4 1-163-1 8-16 10-19 47-94 10-19 17-34 10-19 19-38 10-19 14-28 10-19 20-40 10-19 15-30 10-19 8-14zm65 142-5 8-11 28-20 53-11 29-4 11v3h60l1-2-6-79-1-41-1-10z" fill="#030304"/>
<path transform="translate(1114,173)" d="m0 0h288l1 1-1 11-13 84-3 20-5 2h-67l-60 1-7 39h119l1 4-12 74-5 32-4 2h-118l-1 17-4 24h136l-2 16-16 99-1 2h-294l1-14 14-90 15-94 17-107 16-100 4-22z" fill="#030304"/>
<path transform="translate(1888,142)" d="m0 0 22 1 17 4 18 8 15 9 14 12 10 12 11 17 6 15 4 15 1 12v18l-2 17-5 16-9 17-10 14-14 14-7 8-18 18-8 7-7 7-7 8-12 12h-2v2l-8 7-7 7-7 8-14 14-11 9-11 8-16 8-22 5-19 2h-9l-15-2-20-5-17-9-9-7-10-9-7-8-4-11v-11l4-10 8-9 12-6 4-1h8l11 3 11 8 9 6 10 4 5 1h16l12-4 11-6 22-22 7-8 8-7 60-60 6-5 10-13 5-11 2-9v-11l-3-12-6-11-9-10-14-7-12-3-14 1-11 4-11 7-51 51h-2l-2 4-10 10-5 1-22-7-16-3-24-2-1-3h-2l-1-7 7-8 25-25h2l2-4 31-31h2l2-4 23-23 18-12 16-8 13-4 10-2z" fill="#080809"/>
<path transform="translate(1720,300)" d="m0 0h33l16 3 15 6 14 8 13 11 9 8 5 10 1 4v12l-6 12-7 7-10 5-3 1h-13l-9-3-13-10-7-5-15-4h-14l-14 4-10 6-101 101h-2l-2 4-8 10-5 10-2 8v16l3 10 5 9 8 10 11 7 9 3 6 1h12l13-4 10-6 12-11 56-56 3-1 27 8 10 2 24 2 5 2 2 2v6l-11 12-15 15-8 7-12 13-15 15-8 7-5 6h-2l-2 4-13 13-15 11-16 9-13 5-8 2-18 1h-26l-12-2-16-6-15-8-13-10-8-7-11-14-8-13-5-10-5-15-3-17v-21l4-20 6-15 8-15 9-12 11-12 38-38h2l2-4 59-59 11-9 15-10 16-7 12-3z" fill="#080809"/>
</svg>
